# xmcd
#
# Track frame offsets:
#	150
#	21475
#	44752
#	62645
#	80820
#	101095
#	122262
#	154590
#	181035
#	200730
#	224477
#	275792
#
# Disc length: 4047 seconds
#
# Revision: 1
# Processed by: cddbd v1.5.1PL0 Copyright (c) Steve Scherf et al.
# Submitted via: audiograbber 1.83.01
#
DISCID=b40fcd0c
DTITLE=Rolling Stones - 1995-02-16 - River Plate Stadium, Buenos Aires, Argenti
DTITLE=na - "Sympathy For The Voodoo Cult" - Disc 1
DYEAR=1900
DGENRE=
TTITLE0=Not Fade Away
TTITLE1=Tumbling Dice
TTITLE2=You Got Me Rocking
TTITLE3=It's All Over Now
TTITLE4=Live With Me
TTITLE5=Sparks Will Fly
TTITLE6=Satisfaction
TTITLE7=Out Of Tears
TTITLE8=Angie
TTITLE9=Rock And A Hard Place
TTITLE10=Midnight Rambler
TTITLE11=I Go Wild
EXTD=
EXTT0=
EXTT1=
EXTT2=
EXTT3=
EXTT4=
EXTT5=
EXTT6=
EXTT7=
EXTT8=
EXTT9=
EXTT10=
EXTT11=
PLAYORDER=
